<svg xmlns="http://www.w3.org/2000/svg" xmlns:xlink="http://www.w3.org/1999/xlink" viewBox="0,0,256,256" width="32px" height="32px" fill-rule="nonzero"><g fill="#ffffff" fill-rule="nonzero" stroke="none" stroke-width="1" stroke-linecap="butt" stroke-linejoin="miter" stroke-miterlimit="10" stroke-dasharray="" stroke-dashoffset="0" font-family="none" font-weight="none" font-size="none" text-anchor="none" style="mix-blend-mode: normal"><g transform="scale(8,8)"><path d="M16,6.59375c-4.25391,0 -8.22266,1.14063 -10.9375,2.96875h-5.0625c0.82813,0.96875 1.44141,2.28906 1.59375,3.1875c-0.95703,1.3125 -1.53125,2.9375 -1.53125,4.6875c0,4.39844 3.57031,7.96875 7.96875,7.96875c2.49609,0 4.72656,-1.17187 6.1875,-2.96875c0.59375,0.69531 1.58203,2.09375 1.78125,2.5c0,0 1.13672,-1.67969 1.78125,-2.46875c1.46094,1.79297 3.69531,2.9375 6.1875,2.9375c4.39844,0 7.96875,-3.57031 7.96875,-7.96875c0,-1.74609 -0.57422,-3.375 -1.53125,-4.6875c0.15234,-0.89844 0.76563,-2.21875 1.59375,-3.1875h-5.3125c-2.71484,-1.82812 -6.4375,-2.96875 -10.6875,-2.96875zM16,7.9375c2.85156,0 5.4375,0.53516 7.71875,1.53125c-4.28125,0.13281 -7.71875,3.65234 -7.71875,7.96875c0,-4.39453 -3.54297,-7.96094 -7.9375,-7.96875c2.27734,-0.99219 5.08984,-1.53125 7.9375,-1.53125zM8.03125,11c3.54297,0 6.40625,2.89844 6.40625,6.4375c0,3.54297 -2.86719,6.40625 -6.40625,6.40625c-3.54297,0 -6.40625,-2.86328 -6.40625,-6.40625c0,-3.53906 2.86328,-6.4375 6.40625,-6.4375zM23.96875,11c3.53906,0 6.40625,2.89844 6.40625,6.4375c0,3.54297 -2.86719,6.40625 -6.40625,6.40625c-3.54297,0 -6.40625,-2.86328 -6.40625,-6.40625c0,-3.53906 2.86328,-6.4375 6.40625,-6.4375zM7.9375,13.53125c-2.13672,0 -3.875,1.73828 -3.875,3.875c0,2.13672 1.73828,3.875 3.875,3.875c2.13672,0 3.875,-1.73828 3.875,-3.875c0,-2.13672 -1.73828,-3.875 -3.875,-3.875zM23.96875,13.53125c-2.13672,0 -3.875,1.73828 -3.875,3.875c0,2.13672 1.73828,3.84375 3.875,3.84375c2.13672,0 3.875,-1.70703 3.875,-3.84375c0,-2.13672 -1.73828,-3.875 -3.875,-3.875zM7.9375,14.71875c1.48047,0 2.6875,1.20703 2.6875,2.6875c0,1.48047 -1.20703,2.6875 -2.6875,2.6875c-1.48047,0 -2.6875,-1.20703 -2.6875,-2.6875c0,-1.48047 1.20703,-2.6875 2.6875,-2.6875zM23.96875,14.71875c1.48047,0 2.6875,1.20703 2.6875,2.6875c0,1.48047 -1.20703,2.65625 -2.6875,2.65625c-1.48047,0 -2.6875,-1.17578 -2.6875,-2.65625c0,-1.48047 1.20703,-2.6875 2.6875,-2.6875zM7.75,16.09375c-0.71875,0 -1.3125,0.59375 -1.3125,1.3125c0,0.71875 0.59375,1.3125 1.3125,1.3125c0.71875,0 1.28125,-0.59375 1.28125,-1.3125c0,-0.71875 -0.5625,-1.3125 -1.28125,-1.3125zM23.75,16.09375c-0.71875,0 -1.28125,0.59375 -1.28125,1.3125c0,0.71875 0.5625,1.28125 1.28125,1.28125c0.71875,0 1.3125,-0.5625 1.3125,-1.28125c0,-0.71875 -0.59375,-1.3125 -1.3125,-1.3125z"></path></g></g></svg>